Coordinates
version=1
nRows=8
nColumns=63
inDegrees=yes

Units are S.I. units (second, meters, Newtons, ...)
If the header above contains a line with 'inDegrees', this indicates whether rotational values are in degrees (yes) or radians (no).

endheader
time	pelvis_tilt	pelvis_list	pelvis_rotation	pelvis_tx	pelvis_ty	pelvis_tz	hip_flexion_r	hip_adduction_r	hip_rotation_r	knee_angle_r	knee_angle_r_beta	ankle_angle_r	subtalar_angle_r	mtp_angle_r	hip_flexion_l	hip_adduction_l	hip_rotation_l	knee_angle_l	knee_angle_l_beta	ankle_angle_l	subtalar_angle_l	mtp_angle_l	L5_S1_Flex_Ext	L5_S1_Lat_Bending	L5_S1_axial_rotation	L4_L5_Flex_Ext	L4_L5_Lat_Bending	L4_L5_axial_rotation	L3_L4_Flex_Ext	L3_L4_Lat_Bending	L3_L4_axial_rotation	L2_L3_Flex_Ext	L2_L3_Lat_Bending	L2_L3_axial_rotation	L1_L2_Flex_Ext	L1_L2_Lat_Bending	L1_L2_axial_rotation	L1_T12_Flex_Ext	L1_T12_Lat_Bending	L1_T12_axial_rotation	Abs_r3	Abs_r2	Abs_r1	Abs_t1	Abs_t2	neck_flexion	neck_bending	neck_rotation	arm_flex_r	arm_add_r	arm_rot_r	elbow_flex_r	pro_sup_r	wrist_flex_r	wrist_dev_r	arm_flex_l	arm_add_l	arm_rot_l	elbow_flex_l	pro_sup_l	wrist_flex_l	wrist_dev_l
0.000000	0.406806	-6.083738	85.314995	0.209394	0.889639	0.647877	1.204417	-1.452839	-13.104461	8.707931	0.151982	25.442759	7.186318	0.000000	-2.333832	-3.162438	-6.478828	5.522644	0.096388	24.336007	0.285552	0.000000	-0.193687	0.196453	1.588777	-0.359697	0.261282	1.688075	-0.318209	0.477655	1.688075	-0.221365	0.477655	1.390180	-0.179858	0.400606	1.290881	-0.110673	0.304305	1.191583	-1.383490	2.222310	8.836299	0.000000	0.000000	9.456713	1.484727	-5.126737	-4.156106	-8.697657	21.629030	77.883851	52.454832	4.393677	27.762665	3.499467	-11.308634	38.882959	72.273201	45.599680	11.713808	27.853191
0.016949	0.128579	-6.284750	85.288273	0.209563	0.888858	0.647646	1.371238	-1.806671	-13.848544	8.944737	0.156115	25.666187	8.326985	0.000000	-2.358072	-2.855784	-5.906311	4.911698	0.085725	24.330461	0.144299	0.000000	-0.178792	0.173872	1.448164	-0.332035	0.231250	1.538675	-0.293738	0.422752	1.538675	-0.204341	0.422752	1.267144	-0.166026	0.354560	1.176634	-0.102162	0.269328	1.086123	-1.277094	1.966875	8.054256	0.000000	0.000000	9.951491	1.495820	-3.549191	-3.938576	-8.693716	22.336831	77.987002	52.515133	3.785483	28.120077	2.735614	-11.402298	37.559360	73.061891	47.257892	12.478816	28.985964
0.033898	-0.124905	-6.445562	85.256015	0.209757	0.888189	0.647438	1.503732	-2.123372	-14.466598	9.137800	0.159485	25.874026	9.303180	0.000000	-2.358967	-2.579449	-5.412324	4.437235	0.077444	24.370035	0.024398	0.000000	-0.166945	0.151553	1.338563	-0.310034	0.201566	1.422223	-0.274274	0.368487	1.422223	-0.190802	0.368487	1.171243	-0.155025	0.309048	1.087582	-0.095392	0.234756	1.003922	-1.192473	1.714402	7.444685	0.000000	0.000000	10.379023	1.521547	-2.304608	-3.787606	-8.678557	22.919783	78.050669	52.443783	3.278767	28.450326	2.134183	-11.488792	36.510465	73.688777	48.546757	13.066911	29.882549
0.050847	-0.354223	-6.569698	85.219286	0.209970	0.887621	0.647250	1.604969	-2.404475	-14.969313	9.291158	0.162161	26.066666	10.125639	0.000000	-2.339642	-2.332350	-4.991448	4.086496	0.071323	24.448465	-0.075896	0.000000	-0.157882	0.129673	1.257261	-0.293202	0.172465	1.335840	-0.259384	0.315287	1.335840	-0.180443	0.315287	1.100103	-0.146609	0.264429	1.021524	-0.090214	0.200864	0.942946	-1.127733	1.466888	6.992508	0.000000	0.000000	10.743738	1.559139	-1.364018	-3.696833	-8.653594	23.387153	78.079139	52.257387	2.866689	28.754192	1.681010	-11.568091	35.712313	74.168736	49.500811	13.494892	30.565113
0.067797	-0.559954	-6.660685	85.179148	0.210199	0.887147	0.647082	1.678022	-2.651515	-15.367380	9.408851	0.164215	26.244497	10.805099	0.000000	-2.303224	-2.113404	-4.638263	3.846721	0.067138	24.559487	-0.158330	0.000000	-0.151336	0.108408	1.201547	-0.281046	0.144182	1.276644	-0.248630	0.263582	1.276644	-0.172962	0.263582	1.051354	-0.140531	0.221065	0.976257	-0.086473	0.167923	0.901161	-1.080979	1.226328	6.682646	0.000000	0.000000	11.050070	1.605829	-0.698449	-3.659891	-8.620242	23.748206	78.076704	51.972554	2.542410	29.032453	1.361936	-11.640170	35.140944	74.516648	50.154590	13.779559	31.055818
0.084746	-0.742677	-6.722047	85.136666	0.210437	0.886759	0.646932	1.725963	-2.866026	-15.671490	9.494916	0.165718	26.407910	11.352295	0.000000	-2.252839	-1.921525	-4.347348	3.705149	0.064667	24.696836	-0.224648	0.000000	-0.147044	0.087933	1.168711	-0.273075	0.116951	1.241756	-0.241578	0.213801	1.241756	-0.168056	0.213801	1.022622	-0.136545	0.179313	0.949578	-0.084021	0.136209	0.876533	-1.050318	0.994718	6.500021	0.000000	0.000000	11.302448	1.658846	-0.278931	-3.670416	-8.579914	24.012210	78.047653	51.605891	2.299089	29.285886	1.162796	-11.705004	34.772396	74.747391	50.542630	13.937711	31.376828
0.101695	-0.902971	-6.757310	85.092902	0.210681	0.886448	0.646799	1.751864	-3.049542	-15.892333	9.553394	0.166738	26.557295	11.777963	0.000000	-2.191614	-1.755631	-4.113284	3.649019	0.063687	24.854250	-0.276596	0.000000	-0.144739	0.068426	1.156041	-0.268795	0.091007	1.228294	-0.237791	0.166372	1.228294	-0.165422	0.166372	1.011536	-0.134405	0.139535	0.939284	-0.082704	0.105993	0.867031	-1.033855	0.774054	6.429555	0.000000	0.000000	11.505304	1.715423	-0.076494	-3.722043	-8.534025	24.188431	77.996275	51.174005	2.129886	29.515272	1.069429	-11.762567	34.582708	74.875844	50.699467	13.986147	31.550309
0.118644	-1.041414	-6.769999	85.048921	0.210924	0.886206	0.646681	1.758796	-3.203598	-16.040598	9.588323	0.167348	26.693043	12.092840	0.000000	-2.122674	-1.614638	-3.930652	3.665572	0.063976	25.025462	-0.315920	0.000000	-0.144157	0.050064	1.160826	-0.267713	0.066585	1.233378	-0.236835	0.121725	1.233378	-0.164757	0.121725	1.015723	-0.133864	0.102090	0.943172	-0.082371	0.077549	0.870620	-1.029697	0.566331	6.456169	0.000000	0.000000	11.663070	1.772791	-0.062167	-3.808408	-8.483988	24.286135	77.926860	50.693504	2.027962	29.721387	1.067673	-11.812834	34.547919	74.916886	50.659637	13.941665	31.598422
